<?xml version="1.0" encoding="UTF-8"?>
<svg width="24px" height="24px" viewBox="0 0 24 24" version="1.1" xmlns="http://www.w3.org/2000/svg" xmlns:xlink="http://www.w3.org/1999/xlink">
    <!-- Generator: sketchtool 51.2 (57519) - http://www.bohemiancoding.com/sketch -->
    <title>4B4F5547-443F-450D-82F1-D8B16AF93377</title>
    <desc>Created with sketchtool.</desc>
    <defs></defs>
    <g id="Page-1" stroke="none" stroke-width="1" fill="none" fill-rule="evenodd">
        <g id="详情页广告" transform="translate(-869.000000, -638.000000)" fill-rule="nonzero">
            <g id="ic-prom-close" transform="translate(869.000000, 638.000000)">
                <path d="M12,0 C18.627417,0 24,5.372583 24,12 C24,18.627417 18.627417,24 12,24 C5.372583,24 0,18.627417 0,12 C0,5.372583 5.372583,0 12,0 Z" id="b-path-copy" fill="#FFFFFF" opacity="0.5"></path>
                <path d="M12,0 C18.627417,0 24,5.372583 24,12 C24,18.627417 18.627417,24 12,24 C5.372583,24 0,18.627417 0,12 C0,5.372583 5.372583,0 12,0 Z M12,2 C6.4771525,2 2,6.4771525 2,12 C2,17.5228475 6.4771525,22 12,22 C17.5228475,22 22,17.5228475 22,12 C22,6.4771525 17.5228475,2 12,2 Z" id="b" fill="#000000" opacity="0.100000001"></path>
                <polygon id="a" fill="#999999" points="16.95 15.536 15.54 16.95 12 13.414 8.46 16.95 7.05 15.536 10.59 12 7.05 8.464 8.46 7.05 12 10.586 15.54 7.05 16.95 8.464 13.41 12"></polygon>
            </g>
        </g>
    </g>
</svg>